<svg xmlns="http://www.w3.org/2000/svg" width="361.39" height="62.371" viewBox="0 0 361.39 62.371"><g transform="translate(16003.106 18666.16)"><g transform="translate(-16003.106 -18666.16)"><path d="M25.987,24.631A1.468,1.468,0,0,1,24.4,23.04V21.714a8.4,8.4,0,0,1-3.553,2.492,13.4,13.4,0,0,1-5.3,1.061,14.953,14.953,0,0,1-7.8-1.989,12.976,12.976,0,0,1-5.091-5.542A16.739,16.739,0,0,1,.9,10.048,16.65,16.65,0,0,1,2.68,2.305,13.586,13.586,0,0,1,7.744-3.157a14.625,14.625,0,0,1,7.8-2.015,13.118,13.118,0,0,1,5.25,1.008A8.9,8.9,0,0,1,24.4-1.513V-13.869a1.577,1.577,0,0,1,.424-1.167,1.577,1.577,0,0,1,1.167-.424h4.667a1.577,1.577,0,0,1,1.167.424,1.577,1.577,0,0,1,.424,1.167V23.04a1.468,1.468,0,0,1-1.591,1.591ZM24.714,10.048a8.265,8.265,0,0,0-2.2-5.992,7.7,7.7,0,0,0-5.807-2.28,7.682,7.682,0,0,0-5.834,2.28A8.324,8.324,0,0,0,8.7,10.048a8.161,8.161,0,0,0,2.227,5.913,7.676,7.676,0,0,0,5.78,2.307,7.811,7.811,0,0,0,5.86-2.2A8.249,8.249,0,0,0,24.714,10.048ZM54.571,25.373a18.125,18.125,0,0,1-7.265-1.538,14.769,14.769,0,0,1-5.993-4.773,14.263,14.263,0,0,1-2.6-8.909A15.01,15.01,0,0,1,40.809,2.2a14.273,14.273,0,0,1,5.7-5.33,17.153,17.153,0,0,1,8.061-1.883,16.1,16.1,0,0,1,7.345,1.723,14.518,14.518,0,0,1,5.595,4.958,11.807,11.807,0,0,1,1.856,4.136,23.138,23.138,0,0,1,.424,4.72,2.912,2.912,0,0,1-.583,1.856,1.97,1.97,0,0,1-1.644.742H46.616a5.693,5.693,0,0,0,2.917,4.03,10.356,10.356,0,0,0,5.038,1.273,9.7,9.7,0,0,0,3.712-.636,8.86,8.86,0,0,0,2.758-1.8,2.049,2.049,0,0,1,1.273-.583,1.711,1.711,0,0,1,.955.318l3.447,2.015a1.37,1.37,0,0,1,.849,1.167,1.821,1.821,0,0,1-.424,1.008A16.082,16.082,0,0,1,54.571,25.373ZM54.518,1.934a8.564,8.564,0,0,0-5.33,1.591A5.646,5.646,0,0,0,46.829,7.5H61.412a5.723,5.723,0,0,0-1.061-2.7A6.8,6.8,0,0,0,57.965,2.73,7.191,7.191,0,0,0,54.518,1.934ZM88.246,25.32a21.693,21.693,0,0,1-12.409-3.606,1.392,1.392,0,0,1-.689-1.167,1.841,1.841,0,0,1,.371-1.061l2.28-3.023a1.525,1.525,0,0,1,1.22-.689,1.764,1.764,0,0,1,.955.265,20.059,20.059,0,0,0,4.057,1.7,14.462,14.462,0,0,0,4.11.636,5.578,5.578,0,0,0,3-.742,2.162,2.162,0,0,0,1.193-1.856,1.571,1.571,0,0,0-1.114-1.485,11.926,11.926,0,0,0-2.864-.742l-1.644-.212a30.963,30.963,0,0,1-5.78-1.379,10.836,10.836,0,0,1-3.871-2.545,7.094,7.094,0,0,1-1.909-5.25q0-4.985,3.58-7.106a16.288,16.288,0,0,1,8.459-2.121A18.732,18.732,0,0,1,98-1.831a1.3,1.3,0,0,1,.742,1.167A1.863,1.863,0,0,1,98.323.4L96.1,3.366a1.525,1.525,0,0,1-1.22.689,2.045,2.045,0,0,1-1.008-.265,14.748,14.748,0,0,0-6.947-1.962,5.683,5.683,0,0,0-2.625.61A1.8,1.8,0,0,0,83.1,4q0,1.167,1.458,1.7a21.139,21.139,0,0,0,4.057.9A42.955,42.955,0,0,1,94.9,8.059a9.046,9.046,0,0,1,3.633,2.413,7.913,7.913,0,0,1,1.7,5.356A8.424,8.424,0,0,1,97.1,22.855Q93.974,25.32,88.246,25.32ZM115.24-11.907a4.1,4.1,0,0,1-1.273,3.049,4.236,4.236,0,0,1-3.076,1.246,4.39,4.39,0,0,1-3.155-1.246,4.063,4.063,0,0,1-1.3-3.049,4,4,0,0,1,1.3-3,4.39,4.39,0,0,1,3.155-1.246,4.236,4.236,0,0,1,3.076,1.246A4.043,4.043,0,0,1,115.24-11.907ZM108.5,24.631a1.468,1.468,0,0,1-1.591-1.591V-2.892a1.577,1.577,0,0,1,.424-1.167,1.577,1.577,0,0,1,1.167-.424h4.773a1.577,1.577,0,0,1,1.167.424,1.577,1.577,0,0,1,.424,1.167V23.04a1.468,1.468,0,0,1-1.591,1.591ZM151.089-4.535a1.577,1.577,0,0,1,1.167.424,1.577,1.577,0,0,1,.424,1.167V22.033q0,6.364-3.9,9.97t-10.845,3.606a22.325,22.325,0,0,1-12.675-3.5,1.377,1.377,0,0,1-.742-1.167,1.777,1.777,0,0,1,.371-1.008l2.068-3.023a1.5,1.5,0,0,1,1.22-.742,1.969,1.969,0,0,1,1.008.318,13.919,13.919,0,0,0,3.818,1.723,15.661,15.661,0,0,0,4.349.61q7.478,0,7.478-6.788v-.477a12.362,12.362,0,0,1-8.167,2.6,16.565,16.565,0,0,1-8.061-1.909,13.468,13.468,0,0,1-5.409-5.3,15.115,15.115,0,0,1-1.856-7.371,14.836,14.836,0,0,1,1.856-7.424,13.667,13.667,0,0,1,5.356-5.25,15.944,15.944,0,0,1,8.114-1.962,12.362,12.362,0,0,1,8.167,2.6v-.477a1.577,1.577,0,0,1,.424-1.167,1.577,1.577,0,0,1,1.167-.424ZM137.142,17.472a8.1,8.1,0,0,0,4.057-1.034,7.566,7.566,0,0,0,2.89-2.89,7.886,7.886,0,0,0,1.061-3.977,7.955,7.955,0,0,0-1.034-4.03,7.622,7.622,0,0,0-2.89-2.864,8.227,8.227,0,0,0-4.083-1.008,7.821,7.821,0,0,0-5.78,2.227,7.686,7.686,0,0,0-2.227,5.674,7.743,7.743,0,0,0,2.174,5.727A7.883,7.883,0,0,0,137.142,17.472ZM176.173-5.066q5.94,0,8.724,3.155T187.681,7.4V23.04a1.468,1.468,0,0,1-1.591,1.591h-4.932a1.468,1.468,0,0,1-1.591-1.591V7.4q0-5.886-5.621-5.886a5.157,5.157,0,0,0-4.057,1.856q-1.617,1.856-1.511,5.833V23.04a1.468,1.468,0,0,1-1.591,1.591h-4.72a1.468,1.468,0,0,1-1.591-1.591V-2.945a1.577,1.577,0,0,1,.424-1.167,1.577,1.577,0,0,1,1.167-.424h4.72a1.577,1.577,0,0,1,1.167.424,1.577,1.577,0,0,1,.424,1.167v1.008a10.372,10.372,0,0,1,3.58-2.28A11.424,11.424,0,0,1,176.173-5.066Zm27.948-6.841a4.1,4.1,0,0,1-1.273,3.049,4.236,4.236,0,0,1-3.076,1.246,4.39,4.39,0,0,1-3.155-1.246,4.063,4.063,0,0,1-1.3-3.049,4,4,0,0,1,1.3-3,4.39,4.39,0,0,1,3.155-1.246,4.236,4.236,0,0,1,3.076,1.246A4.043,4.043,0,0,1,204.121-11.907Zm-6.735,36.538A1.468,1.468,0,0,1,195.8,23.04V-2.892a1.577,1.577,0,0,1,.424-1.167,1.577,1.577,0,0,1,1.167-.424h4.773a1.577,1.577,0,0,1,1.167.424,1.577,1.577,0,0,1,.424,1.167V23.04a1.468,1.468,0,0,1-1.591,1.591Zm23.493-1.591a1.468,1.468,0,0,1-1.591,1.591h-4.773a1.468,1.468,0,0,1-1.591-1.591V2.73h-1.7a1.577,1.577,0,0,1-1.167-.424,1.577,1.577,0,0,1-.424-1.167V-2.467a1.577,1.577,0,0,1,.424-1.167,1.577,1.577,0,0,1,1.167-.424h1.7q.212-5.674,3.208-8.644t8.406-2.97a12.9,12.9,0,0,1,2.015.159,1.488,1.488,0,0,1,1.379,1.8l-.212,3.288q-.053,1.379-.955,1.379L225.44-9.1q-2.652,0-3.606,1.273a6.224,6.224,0,0,0-.955,3.765h3.659a1.577,1.577,0,0,1,1.167.424,1.576,1.576,0,0,1,.424,1.167V1.139a1.576,1.576,0,0,1-.424,1.167,1.577,1.577,0,0,1-1.167.424h-3.659Zm24.076,11.3a1.781,1.781,0,0,1-1.8,1.22h-5.409q-1.379,0-1.379-1.114a2.161,2.161,0,0,1,.159-.742l4.243-10.129L229.1-2.573a2.272,2.272,0,0,1-.159-.8.958.958,0,0,1,.345-.769,1.477,1.477,0,0,1,.981-.292H236.1a1.78,1.78,0,0,1,1.8,1.22L244.8,14.131l6.311-17.288a1.765,1.765,0,0,1,1.856-1.273h5.78a1.583,1.583,0,0,1,1.061.318,1.061,1.061,0,0,1,.371.848,2.077,2.077,0,0,1-.159.689Z" transform="translate(101.214 21.199)" fill="#51626e"/><g transform="translate(0 0)"><path d="M10450.456,3391.557a34.819,34.819,0,0,1-19.7,19.949,1.528,1.528,0,0,0-.758,1.515q0,.379.758.758a34.823,34.823,0,0,1,19.952,19.7,1.524,1.524,0,0,0,1.515.758c.25,0,.5-.253.756-.505a34.821,34.821,0,0,1,19.7-19.949,1.527,1.527,0,0,0,.759-1.515q0-.379-.759-.758a34.538,34.538,0,0,1-19.951-19.949,1.524,1.524,0,0,0-1.515-.758C10450.962,3391.052,10450.711,3391.3,10450.456,3391.557Z" transform="translate(-10430.001 -3390.8)" fill="#00e3a0"/><path d="M10457.062,3403.5a24.966,24.966,0,0,1-14.4,14.647c-.506.253-.756.505-.506,1.01a.543.543,0,0,0,.506.5,24.963,24.963,0,0,1,14.646,14.394,1.009,1.009,0,0,0,1.011.5c.253,0,.253-.253.506-.5a24.966,24.966,0,0,1,14.4-14.647,1.008,1.008,0,0,0,.506-1.01c0-.253-.253-.253-.506-.5a24.961,24.961,0,0,1-14.646-14.394c-.253-.5-.5-.5-1.011-.5C10457.313,3403.253,10457.062,3403.5,10457.062,3403.5Z" transform="translate(-10411.605 -3372.193)" fill="#bbc0c4"/><path d="M10460.229,3392.505a19.7,19.7,0,0,1-11.112,11.364.483.483,0,0,0-.25.758.246.246,0,0,0,.25.253,19.7,19.7,0,0,1,11.365,11.111.483.483,0,0,0,.756.253.248.248,0,0,0,.253-.253,19.7,19.7,0,0,1,11.112-11.364.483.483,0,0,0,.25-.758.246.246,0,0,0-.25-.253,19.7,19.7,0,0,1-11.365-11.111c0-.253-.506-.5-.756-.5A.894.894,0,0,0,10460.229,3392.505Z" transform="translate(-10401.391 -3388.971)" fill="#51626e"/></g></g></g></svg>